<svg id="Layer_1" data-name="Layer 1" xmlns="http://www.w3.org/2000/svg" viewBox="0 0 1301 673.2"><defs><style>.cls-1{fill:#e8cfb1;}.cls-2{fill:#e1af8e;}.cls-3{fill:#cda17c;}.cls-4{fill:#cb936e;}</style></defs><g id="baggrund"><rect class="cls-1" width="1301" height="527"/><path id="gulv" class="cls-2" d="M33.51,456.72l0,262.35,1300,.13,0-269.09Z" transform="translate(-33 -46)"/><path id="bagvæg" class="cls-3" d="M529.4,612.34,864,508.46q-.6-206-1.19-412l-182-34.66L484.06,100.12q4.28,233.83,8.56,467.69Z" transform="translate(-33 -46)"/><path id="dørkam" class="cls-4" d="M818.83,587.8l19.74,23.38q-.52-196.48-1.06-393c-1.38-14.32-7.39-57.38-42.36-93.77-40.58-42.23-91.77-46-107.27-46.84-47.08-2.68-82.28,15.29-96.49,23.59a248.48,248.48,0,0,1,27.41-8.32,218.2,218.2,0,0,1,36.83-6,157.81,157.81,0,0,1,59,7c41,13.3,65.06,41.66,73.31,52.39a158,158,0,0,1,31.87,82.33Q819.32,408.15,818.83,587.8Z" transform="translate(-33 -46)"/><path id="væg" class="cls-1" d="M529.4,612.34,531.62,216c1.44-11.59,9.12-63.28,55-101.84,11.53-9.68,47.84-37.38,101.23-36.52,55.55.9,91.61,32.08,100.13,39.86,42.94,39.25,48.52,89.41,49.5,100.75q.53,196.49,1.06,393L1333.5,614l0-563.79-1300-1.13,0,564.79Z" transform="translate(-33 -46)"/></g></svg>